HIERARCHY
ROOT hip
{
	OFFSET 0.000000 0.000000 0.000000
	CHANNELS 6 Xposition Yposition Zposition Xrotation Zrotation Yrotation 
	JOINT abdomen
	{
		OFFSET 0.000000 3.422050 0.000000
		CHANNELS 3 Xrotation Zrotation Yrotation 
		JOINT chest
		{
			OFFSET 0.000000 8.486693 -0.684411
			CHANNELS 3 Xrotation Zrotation Yrotation 
			JOINT neck
			{
				OFFSET 0.000000 10.266162 -0.273764
				CHANNELS 3 Xrotation Zrotation Yrotation 
				JOINT head
				{
					OFFSET 0.000000 3.148285 0.000000
					CHANNELS 3 Xrotation Zrotation Yrotation 
					End Site
					{
						OFFSET 0.000000 3.148289 0.000000
					}
				}
			}
			JOINT lCollar
			{
				OFFSET 3.422053 6.707223 -0.821293
				CHANNELS 3 Yrotation Zrotation Xrotation 
				JOINT lShldr
				{
					OFFSET 3.285171 0.000000 0.000000
					CHANNELS 3 Zrotation Yrotation Xrotation 
					JOINT lForeArm
					{
						OFFSET 10.129278 0.000000 0.000000
						CHANNELS 3 Yrotation Zrotation Xrotation 
						JOINT lHand
						{
							OFFSET 8.486692 0.000000 0.000000
							CHANNELS 3 Zrotation Yrotation Xrotation 
							End Site
							{
								OFFSET 4.106464 0.000000 0.000000
							}
						}
					}
				}
			}
			JOINT rCollar
			{
				OFFSET -3.558935 6.707223 -0.821293
				CHANNELS 3 Yrotation Zrotation Xrotation 
				JOINT rShldr
				{
					OFFSET -3.148289 0.000000 0.000000
					CHANNELS 3 Zrotation Yrotation Xrotation 
					JOINT rForeArm
					{
						OFFSET -10.266159 0.000000 0.000000
						CHANNELS 3 Yrotation Zrotation Xrotation 
						JOINT rHand
						{
							OFFSET -8.349810 0.000000 0.000000
							CHANNELS 3 Zrotation Yrotation Xrotation 
							End Site
							{
								OFFSET -4.106464 0.000000 0.000000
							}
						}
					}
				}
			}
		}
	}
	JOINT lThigh
	{
		OFFSET 5.338403 -1.642589 1.368821
		CHANNELS 3 Xrotation Zrotation Yrotation 
		JOINT lShin
		{
			OFFSET -2.053232 -20.121670 0.000000
			CHANNELS 3 Xrotation Zrotation Yrotation 
			JOINT lFoot
			{
				OFFSET 0.000000 -19.300380 -1.231939
				CHANNELS 3 Xrotation Yrotation Zrotation 
				End Site
				{
					OFFSET 0.000000 -2.463878 4.653993
				}
			}
		}
	}
	JOINT rThigh
	{
		OFFSET -5.338403 -1.642589 1.368821
		CHANNELS 3 Xrotation Zrotation Yrotation 
		JOINT rShin
		{
			OFFSET 2.053232 -20.121670 0.000000
			CHANNELS 3 Xrotation Zrotation Yrotation 
			JOINT rFoot
			{
				OFFSET 0.000000 -19.300380 -1.231939
				CHANNELS 3 Xrotation Yrotation Zrotation 
				End Site
				{
					OFFSET 0.000000 -2.463878 4.653993
				}
			}
		}
	}
}
MOTION
Frames: 11
Frame Time: 0.033264
0.000000 43.528500 0.000000 0.000000 0.000000 0.000000 0.000000 0.000000 0.000000 0.000000 0.000000 0.000000 0.000000 0.000000 0.000000 0.000000 0.000000 0.000000 0.000000 0.000000 0.000000 0.000000 0.000000 0.000000 0.000000 0.000000 0.000000 0.000000 0.000000 0.000000 0.000000 0.000000 0.000000 0.000000 0.000000 0.000000 0.000000 0.000000 0.000000 0.000000 0.000000 0.000000 0.000000 0.000000 0.000000 0.000000 0.000000 0.000000 0.000000 0.000000 0.000000 0.000000 0.000000 0.000000 0.000000 0.000000 0.000000 0.000000 0.000000 0.000000 
-1.324646 9.384998 9.200462 12.002546 0.000000 -180.000000 -8.356602 -0.072358 -0.294516 36.534344 -2.254714 0.498817 -0.236053 0.000000 0.000000 -0.180097 0.099664 -0.000157 8.960484 -24.148735 -41.496498 -44.849285 -6.666318 6.275561 -111.435722 -63.866940 -50.937374 35.029358 5.679608 30.464588 -16.678564 11.856404 -42.359127 44.236889 7.772380 5.884534 71.664986 63.804508 -15.070239 -22.565491 12.348593 5.690442 -95.379463 65.113472 44.489799 115.343674 4.852614 0.959789 44.738407 -15.941556 -23.051773 -88.932106 -55.920231 -51.654480 117.097267 -4.811062 -1.111628 33.563030 12.487231 26.523399 
-1.324646 9.384998 9.109682 12.665709 0.000000 -180.000000 -7.801708 -0.072289 -0.294636 34.937698 -2.254812 0.498753 -0.235462 0.000000 0.000000 -0.179646 0.099415 -0.000156 9.466273 -24.365372 -40.481731 -44.849285 -6.666318 6.275561 -110.289566 -64.036850 -49.914997 34.569210 6.077147 30.437963 -16.752672 12.315907 -41.553196 43.956989 7.701200 5.857409 70.709396 63.654133 -14.213980 -21.768204 11.853694 6.074411 -94.667603 65.345901 44.460011 115.634705 4.889768 0.984659 44.605824 -16.095062 -22.899050 -88.198616 -56.071804 -51.619308 117.392303 -4.848534 -1.136834 33.355213 12.651484 26.469788 
-1.324646 9.384998 9.018902 13.331797 0.000000 -180.000000 -7.246605 -0.072219 -0.294755 33.336010 -2.254911 0.498692 -0.234870 0.000000 0.000000 -0.179194 0.099165 -0.000155 9.977633 -24.574028 -39.462063 -44.849285 -6.666317 6.275561 -109.129417 -64.197762 -48.878586 34.108311 6.474643 30.408091 -16.833611 12.774810 -40.744373 43.677135 7.629882 5.830637 69.763893 63.497482 -13.367860 -20.974859 11.353075 6.451046 -93.949219 65.578712 44.436985 115.925797 4.926799 1.009721 44.473541 -16.248919 -22.746563 -87.461884 -56.223759 -51.587498 117.687401 -4.885880 -1.162238 33.147385 12.815937 26.416737 
-1.324646 9.384998 8.928121 13.998213 0.000000 -180.000000 -6.691319 -0.072147 -0.294873 31.729874 -2.255013 0.498633 -0.234278 0.000000 0.000000 -0.178743 0.098915 -0.000154 10.494351 -24.774542 -38.437702 -44.849285 -6.666318 6.275561 -107.955765 -64.349457 -47.828629 33.646648 6.872036 30.374966 -16.921434 13.232965 -39.932659 43.397343 7.558431 5.804220 68.828690 63.334637 -12.532136 -20.185495 10.846925 6.820293 -93.224060 65.811714 44.420822 116.216942 4.963707 1.034976 44.341568 -16.403122 -22.594311 -86.721893 -56.376019 -51.559052 117.982559 -4.923097 -1.187838 32.939552 12.980587 26.364258 
-1.324646 9.384998 8.837340 14.664905 0.000000 -180.000000 -6.135878 -0.072075 -0.294991 30.119915 -2.255116 0.498578 -0.233687 0.000000 0.000000 -0.178291 0.098665 -0.000154 11.016197 -24.966774 -37.408894 -44.849281 -6.666318 6.275560 -106.769287 -64.491806 -46.765800 33.184204 7.269289 30.338568 -17.016163 13.690211 -39.118038 43.117599 7.486846 5.778156 67.904015 63.165688 -11.707038 -19.400126 10.335417 7.182099 -92.492012 66.044914 44.411777 116.508141 5.000488 1.060421 44.209915 -16.557674 -22.442299 -85.978638 -56.528561 -51.534069 118.277771 -4.960187 -1.213634 32.731735 13.145438 26.312361 
-1.324646 9.384998 8.746560 15.331825 0.000000 -180.000000 -5.580305 -0.072001 -0.295108 28.506750 -2.255222 0.498525 -0.233095 0.000000 0.000000 -0.177840 0.098415 -0.000153 11.542940 -25.150579 -36.375889 -44.849285 -6.666317 6.275560 -105.570549 -64.624557 -45.690681 32.720951 7.666348 30.298887 -17.117857 14.146399 -38.300510 42.837917 7.415130 5.752447 66.990089 62.990765 -10.892780 -18.618759 9.818739 7.536424 -91.752975 66.278275 44.410080 116.799393 5.037142 1.086058 44.078571 -16.712572 -22.290533 -85.232117 -56.681320 -51.512562 118.573051 -4.997146 -1.239626 32.523918 13.310481 26.261036 
-1.324646 9.384998 8.655780 15.998941 0.000000 -180.000000 -5.024627 -0.071926 -0.295224 26.891010 -2.255328 0.498474 -0.232504 0.000000 0.000000 -0.177389 0.098166 -0.000152 12.074344 -25.325840 -35.338966 -44.849285 -6.666318 6.275561 -104.360344 -64.747635 -44.604050 32.256882 8.063166 30.255928 -17.226517 14.601360 -37.480045 42.558300 7.343288 5.727095 66.087135 62.810032 -10.089569 -17.841406 9.297071 7.883224 -91.006752 66.511703 44.415901 117.090698 5.073669 1.111883 43.947548 -16.867805 -22.139000 -84.482430 -56.834301 -51.494610 118.868362 -5.033972 -1.265810 32.316093 13.475713 26.210297 
-1.324646 9.384998 8.564999 16.666199 0.000000 -180.000000 -4.468871 -0.071850 -0.295340 25.273340 -2.255436 0.498427 -0.231912 0.000000 0.000000 -0.176937 0.097916 -0.000151 12.610149 -25.492422 -34.298367 -44.849285 -6.666318 6.275561 -103.139359 -64.860817 -43.506596 31.791948 8.459688 30.209658 -17.342196 15.054939 -36.656647 42.278748 7.271320 5.702098 65.195267 62.623539 -9.297546 -17.068069 8.770610 8.222467 -90.253174 66.745125 44.429474 117.382065 5.110067 1.137898 43.816837 -17.023375 -21.987709 -83.729500 -56.987423 -51.480251 119.163742 -5.070666 -1.292188 32.108273 13.641126 26.160130 
-1.324646 9.384998 8.474218 17.333553 0.000000 -180.000000 -3.913064 -0.071773 -0.295454 23.654379 -2.255546 0.498383 -0.231320 0.000000 0.000000 -0.176486 0.097666 -0.000150 13.150107 -25.650225 -33.254383 -44.849285 -6.666318 6.275561 -101.908455 -64.963982 -42.399178 31.326164 8.855877 30.160088 -17.464909 15.506982 -35.830311 41.999283 7.199234 5.677463 64.314682 62.431480 -8.516870 -16.298752 8.239537 8.554121 -89.492104 66.978516 44.451050 117.673454 5.146332 1.164100 43.686451 -17.179279 -21.836662 -82.973389 -57.140656 -51.469524 119.459152 -5.107224 -1.318757 31.900454 13.806722 26.110552 
-1.324646 9.384998 8.383438 18.000965 0.000000 -180.000000 -3.357230 -0.071694 -0.295569 22.034769 -2.255657 0.498342 -0.230729 0.000000 0.000000 -0.176035 0.097416 -0.000150 13.693933 -25.799122 -32.207294 -44.849285 -6.666318 6.275561 -100.668434 -65.056976 -41.282612 30.859486 9.251670 30.107191 -17.594677 15.957325 -35.001026 41.719879 7.127027 5.653184 63.445442 62.233925 -7.747632 -15.533450 7.704048 8.878165 -88.723404 67.211838 44.480873 117.964867 5.182464 1.190489 43.556381 -17.335514 -21.685858 -82.214111 -57.293964 -51.462498 119.754593 -5.143647 -1.345517 31.692617 13.972486 26.061546 
